<svg xmlns="http://www.w3.org/2000/svg" width="16" height="21" viewBox="0 0 16 21" fill="none"><g clip-path="url(#clip0_10_68)"><g clip-path="url(#clip1_10_68)"><path d="M13.0649 6.18431C13.0092 5.97587 12.8963 5.75376 12.8127 5.5593C11.8129 3.15652 9.62837 2.29541 7.86445 2.29541C5.50312 2.29541 2.90239 3.87878 2.55518 7.14249V7.80928C2.55518 7.83711 2.56477 8.08708 2.57839 8.21212C2.77303 9.76752 4.00036 11.4206 4.91698 12.976C5.90313 14.6424 6.9264 16.2817 7.94019 17.9204C8.56532 16.851 9.18819 15.7676 9.79908 14.726C9.96557 14.4203 10.1588 14.1148 10.3255 13.823C10.4366 13.6287 10.6488 13.4344 10.7458 13.2537C11.7319 11.4482 13.3191 9.62882 13.3191 7.83707V7.101C13.3192 6.90676 13.0784 6.2262 13.0649 6.18431ZM7.90768 9.53161C7.21357 9.53161 6.45382 9.18453 6.07881 8.22603C6.02293 8.07346 6.02744 7.76769 6.02744 7.73968V7.30912C6.02744 6.08721 7.06495 5.53154 7.96755 5.53154C9.07874 5.53154 9.93814 6.42055 9.93814 7.53174C9.93814 8.64289 9.01887 9.53161 7.90768 9.53161Z" fill="#4EA1EF"/></g></g><defs><clipPath id="clip0_10_68"><rect width="15.625" height="19.8864" fill="white" transform="translate(0.125 0.164551)"/></clipPath><clipPath id="clip1_10_68"><rect width="15.625" height="15.625" fill="white" transform="matrix(-1 0 0 1 15.75 2.29541)"/></clipPath></defs></svg>