<?xml version="1.0" encoding="UTF-8"?> <svg xmlns="http://www.w3.org/2000/svg" width="12" height="12" viewBox="0 0 12 12" fill="none"><path d="M0.405844 0.871238L2.67663 0.326367C2.92336 0.26734 3.17664 0.401287 3.27708 0.641938L4.32513 3.18467C4.41684 3.40715 4.3557 3.66824 4.17447 3.82035L2.8513 4.94641C3.63735 6.68773 5.01073 8.13617 6.72037 8.96937L7.80336 7.59357C7.95184 7.40514 8.20075 7.34157 8.41473 7.43692L10.8602 8.52666C11.0938 8.63337 11.2226 8.89672 11.1659 9.15327L10.6418 11.5144C10.5873 11.7596 10.3776 11.9366 10.1309 11.9366C4.53911 11.9366 -0.000278221 7.22579 -0.000278221 1.40249C-0.000278221 1.14821 0.167848 0.927995 0.405844 0.871238Z" fill="#4EA1EF"></path></svg> 