<svg width="14" height="14" viewBox="0 0 14 14" fill="none" xmlns="http://www.w3.org/2000/svg">
<path d="M6.99992 0.975876C3.4038 0.975876 0.48597 3.89368 0.48597 7.4898C0.48597 8.92978 0.952078 10.2561 1.74027 11.336L0.910402 13.7915L3.49853 12.9845C4.5103 13.6285 5.71155 14.0039 6.99992 14.0039C10.596 14.0039 13.5139 11.086 13.5139 7.4898C13.5139 3.89368 10.596 0.975876 6.99992 0.975876ZM9.98218 10.9836C8.79988 11.4573 7.39023 10.9988 5.84795 9.82788C4.30567 8.65695 3.29012 7.00857 3.22192 5.7846C3.1537 4.56062 4.15032 3.94296 4.6922 3.94673C5.23409 3.95053 5.829 5.68227 5.8366 5.94752C5.84418 6.21658 5.17344 6.69404 5.14691 6.92142C5.12039 7.14877 6.06015 8.27042 6.45804 8.57358C6.85214 8.87293 7.66686 9.44892 8.08749 9.39587C8.50433 9.33904 8.78093 8.50158 9.04619 8.44852C9.31144 8.39547 10.759 9.11546 10.903 9.30114C11.047 9.49062 11.0318 10.5668 9.98218 10.9836Z" fill="#2bb446"/>
</svg>
